<mxfile host="Electron" modified="2025-06-18T13:56:44.069Z" agent="Mozilla/5.0 (Windows NT 10.0; Win64; x64) AppleWebKit/537.36 (KHTML, like Gecko) draw.io/24.1.0 Chrome/120.0.6099.109 Electron/28.1.0 Safari/537.36" etag="YHUvgeFhsgC1XDsqo9yi" version="24.1.0" type="device">
  <diagram name="Seite-1" id="zDKCQvVvK9WxXgclctZC">
    <mxGraphModel dx="2954" dy="1196" grid="1" gridSize="10" guides="1" tooltips="1" connect="1" arrows="1" fold="1" page="1" pageScale="1" pageWidth="827" pageHeight="1169" math="0" shadow="0">
      <root>
        <mxCell id="0" />
        <mxCell id="1" parent="0" />
        <mxCell id="KFyqX79QHJTVZ5y0nEQ--24" value="" style="ellipse;shape=cloud;whiteSpace=wrap;html=1;" parent="1" vertex="1">
          <mxGeometry x="50" width="190" height="100" as="geometry" />
        </mxCell>
        <mxCell id="KFyqX79QHJTVZ5y0nEQ--22" value="docker @ proxmox" style="whiteSpace=wrap;html=1;align=right;verticalAlign=top;" parent="1" vertex="1">
          <mxGeometry x="60" y="190" width="600" height="310" as="geometry" />
        </mxCell>
        <mxCell id="KFyqX79QHJTVZ5y0nEQ--3" value="&lt;span style=&quot;text-align: right;&quot;&gt;frontend:8080&lt;/span&gt;" style="whiteSpace=wrap;html=1;" parent="1" vertex="1">
          <mxGeometry x="310" y="320" width="120" height="60" as="geometry" />
        </mxCell>
        <mxCell id="KFyqX79QHJTVZ5y0nEQ--11" style="edgeStyle=orthogonalEdgeStyle;rounded=0;orthogonalLoop=1;jettySize=auto;html=1;exitX=1;exitY=0.75;exitDx=0;exitDy=0;entryX=0;entryY=0.5;entryDx=0;entryDy=0;" parent="1" source="KFyqX79QHJTVZ5y0nEQ--4" target="KFyqX79QHJTVZ5y0nEQ--5" edge="1">
          <mxGeometry relative="1" as="geometry" />
        </mxCell>
        <mxCell id="KFyqX79QHJTVZ5y0nEQ--12" value="&amp;nbsp; /api/*&amp;nbsp;&amp;nbsp;" style="edgeLabel;html=1;align=center;verticalAlign=middle;resizable=0;points=[];" parent="KFyqX79QHJTVZ5y0nEQ--11" vertex="1" connectable="0">
          <mxGeometry x="0.1238" y="-2" relative="1" as="geometry">
            <mxPoint as="offset" />
          </mxGeometry>
        </mxCell>
        <mxCell id="KFyqX79QHJTVZ5y0nEQ--19" style="edgeStyle=orthogonalEdgeStyle;rounded=0;orthogonalLoop=1;jettySize=auto;html=1;exitX=1;exitY=0.25;exitDx=0;exitDy=0;entryX=0;entryY=0.25;entryDx=0;entryDy=0;" parent="1" source="KFyqX79QHJTVZ5y0nEQ--4" target="KFyqX79QHJTVZ5y0nEQ--3" edge="1">
          <mxGeometry relative="1" as="geometry" />
        </mxCell>
        <mxCell id="KFyqX79QHJTVZ5y0nEQ--20" value="&amp;nbsp; /&amp;nbsp;&amp;nbsp;" style="edgeLabel;html=1;align=center;verticalAlign=middle;resizable=0;points=[];" parent="KFyqX79QHJTVZ5y0nEQ--19" vertex="1" connectable="0">
          <mxGeometry x="-0.1" y="-2" relative="1" as="geometry">
            <mxPoint as="offset" />
          </mxGeometry>
        </mxCell>
        <mxCell id="KFyqX79QHJTVZ5y0nEQ--4" value="&lt;span style=&quot;text-align: right;&quot;&gt;proxy:80&lt;/span&gt;" style="whiteSpace=wrap;html=1;" parent="1" vertex="1">
          <mxGeometry x="90" y="320" width="120" height="60" as="geometry" />
        </mxCell>
        <mxCell id="KFyqX79QHJTVZ5y0nEQ--17" style="edgeStyle=orthogonalEdgeStyle;rounded=0;orthogonalLoop=1;jettySize=auto;html=1;exitX=1;exitY=0.5;exitDx=0;exitDy=0;entryX=0;entryY=0.5;entryDx=0;entryDy=0;" parent="1" source="KFyqX79QHJTVZ5y0nEQ--5" target="KFyqX79QHJTVZ5y0nEQ--6" edge="1">
          <mxGeometry relative="1" as="geometry" />
        </mxCell>
        <mxCell id="KFyqX79QHJTVZ5y0nEQ--5" value="&lt;span style=&quot;text-align: right;&quot;&gt;backend:3000&lt;/span&gt;" style="whiteSpace=wrap;html=1;" parent="1" vertex="1">
          <mxGeometry x="310" y="420" width="120" height="60" as="geometry" />
        </mxCell>
        <mxCell id="KFyqX79QHJTVZ5y0nEQ--6" value="&lt;span style=&quot;text-align: right;&quot;&gt;postgres:5432&lt;/span&gt;" style="whiteSpace=wrap;html=1;" parent="1" vertex="1">
          <mxGeometry x="520" y="420" width="120" height="60" as="geometry" />
        </mxCell>
        <mxCell id="KFyqX79QHJTVZ5y0nEQ--7" value="5439" style="whiteSpace=wrap;html=1;" parent="1" vertex="1">
          <mxGeometry x="560" y="470" width="40" height="20" as="geometry" />
        </mxCell>
        <mxCell id="KFyqX79QHJTVZ5y0nEQ--13" value="https://hopti.pschild.de" style="text;strokeColor=none;align=center;fillColor=none;html=1;verticalAlign=middle;whiteSpace=wrap;rounded=0;" parent="1" vertex="1">
          <mxGeometry x="120" y="20" width="60" height="30" as="geometry" />
        </mxCell>
        <mxCell id="KFyqX79QHJTVZ5y0nEQ--23" style="edgeStyle=orthogonalEdgeStyle;rounded=0;orthogonalLoop=1;jettySize=auto;html=1;exitX=0.5;exitY=1;exitDx=0;exitDy=0;exitPerimeter=0;" parent="1" source="KFyqX79QHJTVZ5y0nEQ--15" target="KFyqX79QHJTVZ5y0nEQ--16" edge="1">
          <mxGeometry relative="1" as="geometry" />
        </mxCell>
        <mxCell id="KFyqX79QHJTVZ5y0nEQ--15" value="" style="shape=cylinder3;whiteSpace=wrap;html=1;boundedLbl=1;backgroundOutline=1;size=3;" parent="1" vertex="1">
          <mxGeometry x="145" y="70" width="10" height="110" as="geometry" />
        </mxCell>
        <mxCell id="KFyqX79QHJTVZ5y0nEQ--21" style="edgeStyle=orthogonalEdgeStyle;rounded=0;orthogonalLoop=1;jettySize=auto;html=1;exitX=0.5;exitY=1;exitDx=0;exitDy=0;entryX=0.5;entryY=0;entryDx=0;entryDy=0;" parent="1" source="KFyqX79QHJTVZ5y0nEQ--16" target="KFyqX79QHJTVZ5y0nEQ--4" edge="1">
          <mxGeometry relative="1" as="geometry" />
        </mxCell>
        <mxCell id="KFyqX79QHJTVZ5y0nEQ--16" value="&lt;span style=&quot;text-align: right;&quot;&gt;cloudflare-tunnel&lt;/span&gt;" style="whiteSpace=wrap;html=1;" parent="1" vertex="1">
          <mxGeometry x="90" y="210" width="120" height="60" as="geometry" />
        </mxCell>
        <mxCell id="KFyqX79QHJTVZ5y0nEQ--25" style="edgeStyle=orthogonalEdgeStyle;rounded=0;orthogonalLoop=1;jettySize=auto;html=1;entryX=0.5;entryY=0;entryDx=0;entryDy=0;entryPerimeter=0;" parent="1" source="KFyqX79QHJTVZ5y0nEQ--13" target="KFyqX79QHJTVZ5y0nEQ--15" edge="1">
          <mxGeometry relative="1" as="geometry" />
        </mxCell>
      </root>
    </mxGraphModel>
  </diagram>
</mxfile>
